<svg width="25" height="25" viewBox="0 0 25 25" fill="none" xmlns="http://www.w3.org/2000/svg">
<path fill-rule="evenodd" clip-rule="evenodd" d="M5.03281 5.84219L8.56562 9.3875L12.0312 5.9125L10.9375 4.81875L9.35625 6.39219L9.34375 3.89219C9.34233 3.68073 9.42294 3.47696 9.56863 3.3237C9.71432 3.17043 9.91374 3.07961 10.125 3.07031H12.5V1.5625H10.125C9.82025 1.56291 9.51857 1.62347 9.23728 1.74071C8.95598 1.85794 8.70059 2.02956 8.48575 2.2457C8.27091 2.46184 8.10085 2.71827 7.98532 3.00027C7.86979 3.28228 7.81106 3.58431 7.8125 3.88906V6.40625L6.13594 4.73906L5.03281 5.84219ZM15.4547 8.64531H15.4703C15.7563 9.13125 16.175 9.375 16.7297 9.375C17.3437 9.375 17.8328 9.1125 18.1984 8.58906C18.5672 8.06563 18.75 7.37031 18.75 6.50625C18.75 5.70781 18.5938 5.07969 18.2797 4.62031C17.9656 4.15938 17.5172 3.92969 16.9359 3.92969C16.3031 3.92969 15.8141 4.23281 15.4703 4.8375H15.4547V1.5625H14.0625V9.24844H15.4531V8.64531H15.4547ZM15.4313 6.9875V6.45625C15.4313 6.06875 15.5219 5.75625 15.7047 5.51719C15.7829 5.40558 15.8871 5.31458 16.0082 5.252C16.1292 5.18941 16.2637 5.1571 16.4 5.15781C16.5356 5.15266 16.6702 5.18366 16.7899 5.24764C16.9096 5.31161 17.0102 5.40625 17.0813 5.52187C17.2438 5.7625 17.3234 6.09688 17.3234 6.52656C17.3234 7.04219 17.2359 7.44375 17.0594 7.72656C16.9871 7.85715 16.8804 7.96547 16.751 8.03983C16.6215 8.11419 16.4742 8.15174 16.325 8.14844C16.1992 8.14985 16.075 8.12056 15.9631 8.06311C15.8512 8.00566 15.755 7.92178 15.6828 7.81875C15.5091 7.57733 15.4211 7.28472 15.4328 6.9875H15.4313ZM14.0625 19.9516C13.6625 20.1922 13.0859 20.3125 12.3313 20.3125C11.4516 20.3125 10.7375 20.0344 10.1922 19.4797C9.64687 18.925 9.375 18.2094 9.375 17.3328C9.375 16.3203 9.66562 15.5234 10.25 14.9422C10.8344 14.3547 11.6172 14.0625 12.5938 14.0625C13.2703 14.0625 13.7594 14.1562 14.0625 14.3422V15.9016C13.7114 15.6207 13.2746 15.4685 12.825 15.4703C12.3172 15.4703 11.9141 15.6266 11.6156 15.9359C11.3188 16.2422 11.1734 16.6672 11.1734 17.2109C11.1734 17.7391 11.3141 18.1531 11.5984 18.4563C11.8828 18.7547 12.2719 18.9047 12.7687 18.9047C13.2094 18.9047 13.6406 18.7609 14.0625 18.4734V19.9516V19.9516ZM6.25 10.9375L4.6875 12.5V21.875L6.25 23.4375H17.1875L18.75 21.875V12.5L17.1875 10.9375H6.25ZM6.25 12.5H17.1875V21.875H6.25V12.5Z" fill="#808080"/>
</svg>
