<svg width="30" height="30" viewBox="0 0 30 30" fill="none" xmlns="http://www.w3.org/2000/svg">
<rect x="0.5" y="0.5" width="29" height="29" fill="#808080" stroke="#808080"/>
<path d="M6.77344 6.7742H10.6444V10.6452H6.77344V6.7742ZM12.5799 6.7742H16.4509V10.6452H12.5799V6.7742ZM18.3863 6.7742H22.2573V10.6452H18.3863V6.7742ZM6.77344 12.5807H10.6444V16.4516H6.77344V12.5807ZM12.5799 12.5807H16.4509V16.4516H12.5799V12.5807ZM18.3863 12.5807H22.2573V16.4516H18.3863V12.5807ZM6.77344 18.3871H10.6444V22.2581H6.77344V18.3871ZM12.5799 18.3871H16.4509V22.2581H12.5799V18.3871ZM18.3863 18.3871H22.2573V22.2581H18.3863V18.3871Z" fill="white"/>
</svg>
