<svg width="30" height="30" viewBox="0 0 30 30" fill="none" xmlns="http://www.w3.org/2000/svg">
<rect x="0.5" y="0.5" width="29" height="29" stroke="#808080"/>
<path d="M20 8H11.9219L15.8594 13.5156C16.0469 13.8385 16.0521 14.1615 15.875 14.4844C15.8542 14.5156 15.5156 14.9922 14.8594 15.9141C14.2031 16.8359 13.5521 17.7474 12.9062 18.6484L11.9375 20H20C20.2812 20 20.5182 20.099 20.7109 20.2969C20.9036 20.4948 21 20.7318 21 21.0078C21 21.2839 20.9036 21.5182 20.7109 21.7109C20.5182 21.9036 20.2812 22 20 22H10C9.71875 22 9.48177 21.9036 9.28906 21.7109C9.09635 21.5182 9 21.2812 9 21C9 20.8125 9.10417 20.5729 9.3125 20.2812L13.7812 14.0156C10.7708 9.79688 9.21875 7.61979 9.125 7.48438C9.04167 7.32812 9 7.16667 9 7C9 6.71875 9.09896 6.48177 9.29688 6.28906C9.49479 6.09635 9.72917 6 10 6H20C20.2812 6 20.5182 6.09635 20.7109 6.28906C20.9036 6.48177 21 6.71615 21 6.99219C21 7.26823 20.9036 7.50521 20.7109 7.70312C20.5182 7.90104 20.2812 8 20 8Z" fill="#808080"/>
</svg>
