<svg width="30" height="30" viewBox="0 0 30 30" fill="none" xmlns="http://www.w3.org/2000/svg">
<rect x="0.5" y="0.5" width="29" height="29" stroke="#808080"/>
<path fill-rule="evenodd" clip-rule="evenodd" d="M8.03281 8.84219L11.5656 12.3875L15.0312 8.9125L13.9375 7.81875L12.3562 9.39219L12.3438 6.89219C12.3423 6.68073 12.4229 6.47696 12.5686 6.3237C12.7143 6.17043 12.9137 6.07961 13.125 6.07031H15.5V4.5625H13.125C12.8202 4.56291 12.5186 4.62347 12.2373 4.74071C11.956 4.85794 11.7006 5.02956 11.4857 5.2457C11.2709 5.46184 11.1009 5.71827 10.9853 6.00027C10.8698 6.28228 10.8111 6.58431 10.8125 6.88906V9.40625L9.13594 7.73906L8.03281 8.84219ZM18.4547 11.6453H18.4703C18.7563 12.1312 19.175 12.375 19.7297 12.375C20.3438 12.375 20.8328 12.1125 21.1984 11.5891C21.5672 11.0656 21.75 10.3703 21.75 9.50625C21.75 8.70781 21.5938 8.07969 21.2797 7.62031C20.9656 7.15937 20.5172 6.92969 19.9359 6.92969C19.3031 6.92969 18.8141 7.23281 18.4703 7.8375H18.4547V4.5625H17.0625V12.2484H18.4531V11.6453H18.4547ZM18.4313 9.9875V9.45625C18.4313 9.06875 18.5219 8.75625 18.7047 8.51719C18.7829 8.40558 18.8871 8.31458 19.0082 8.252C19.1292 8.18941 19.2637 8.1571 19.4 8.15781C19.5356 8.15266 19.6702 8.18366 19.7899 8.24764C19.9096 8.31161 20.0102 8.40625 20.0813 8.52187C20.2438 8.7625 20.3234 9.09688 20.3234 9.52656C20.3234 10.0422 20.2359 10.4438 20.0594 10.7266C19.9871 10.8571 19.8804 10.9655 19.751 11.0398C19.6215 11.1142 19.4742 11.1517 19.325 11.1484C19.1992 11.1498 19.075 11.1206 18.9631 11.0631C18.8512 11.0057 18.755 10.9218 18.6828 10.8188C18.5091 10.5773 18.4211 10.2847 18.4328 9.9875H18.4313ZM17.0625 22.9516C16.6625 23.1922 16.0859 23.3125 15.3313 23.3125C14.4516 23.3125 13.7375 23.0344 13.1922 22.4797C12.6469 21.925 12.375 21.2094 12.375 20.3328C12.375 19.3203 12.6656 18.5234 13.25 17.9422C13.8344 17.3547 14.6172 17.0625 15.5938 17.0625C16.2703 17.0625 16.7594 17.1562 17.0625 17.3422V18.9016C16.7114 18.6207 16.2746 18.4685 15.825 18.4703C15.3172 18.4703 14.9141 18.6266 14.6156 18.9359C14.3187 19.2422 14.1734 19.6672 14.1734 20.2109C14.1734 20.7391 14.3141 21.1531 14.5984 21.4563C14.8828 21.7547 15.2719 21.9047 15.7688 21.9047C16.2094 21.9047 16.6406 21.7609 17.0625 21.4734V22.9516ZM9.25 13.9375L7.6875 15.5V24.875L9.25 26.4375H20.1875L21.75 24.875V15.5L20.1875 13.9375H9.25ZM9.25 15.5H20.1875V24.875H9.25V15.5Z" fill="#808080"/>
</svg>
