<svg width="30" height="30" viewBox="0 0 30 30" fill="none" xmlns="http://www.w3.org/2000/svg">
<rect x="0.5" y="0.5" width="29" height="29" stroke="#808080"/>
<g clip-path="url(#clip0_141_10124)">
<path d="M27.5 9H47.5V13H27.5V9ZM27.5 37V33H47.5V37H27.5ZM27.5 21H47.5V25H27.5V21ZM21.5 25V29L14.84 37H21.5V41H9.5V37L16.16 29H9.5V25H21.5ZM17.5 5H13.5C11.3 5 9.5 6.8 9.5 9V21H13.5V17H17.5V21H21.5V9C21.5 7.93913 21.0786 6.92172 20.3284 6.17157C19.5783 5.42143 18.5609 5 17.5 5ZM17.5 13H13.5V9H17.5V13Z" fill="#808080"/>
</g>
<defs>
<clipPath id="clip0_141_10124">
<rect width="24" height="20" fill="white" transform="translate(3.5 5)"/>
</clipPath>
</defs>
</svg>
