<svg width="19" height="16" viewBox="0 0 19 16" fill="none" xmlns="http://www.w3.org/2000/svg">
<path d="M18.2387 0.58792H5.50376C5.40781 0.58792 5.32931 0.667148 5.32931 0.763982V1.99641C5.32931 2.09325 5.40781 2.17248 5.50376 2.17248H18.2387C18.3346 2.17248 18.4131 2.09325 18.4131 1.99641V0.763982C18.4131 0.667148 18.3346 0.58792 18.2387 0.58792ZM18.2387 6.83811H5.50376C5.40781 6.83811 5.32931 6.91734 5.32931 7.01417V8.2466C5.32931 8.34344 5.40781 8.42266 5.50376 8.42266H18.2387C18.3346 8.42266 18.4131 8.34344 18.4131 8.2466V7.01417C18.4131 6.91734 18.3346 6.83811 18.2387 6.83811ZM18.2387 13.0883H5.50376C5.40781 13.0883 5.32931 13.1675 5.32931 13.2644V14.4968C5.32931 14.5936 5.40781 14.6729 5.50376 14.6729H18.2387C18.3346 14.6729 18.4131 14.5936 18.4131 14.4968V13.2644C18.4131 13.1675 18.3346 13.0883 18.2387 13.0883ZM0.619141 1.3802C0.619141 1.54204 0.650727 1.7023 0.712096 1.85183C0.773464 2.00135 0.863414 2.13722 0.976809 2.25166C1.0902 2.3661 1.22482 2.45688 1.37298 2.51882C1.52114 2.58075 1.67993 2.61263 1.8403 2.61263C2.00066 2.61263 2.15945 2.58075 2.30761 2.51882C2.45577 2.45688 2.59039 2.3661 2.70378 2.25166C2.81718 2.13722 2.90713 2.00135 2.96849 1.85183C3.02986 1.7023 3.06145 1.54204 3.06145 1.3802C3.06145 1.21835 3.02986 1.05809 2.96849 0.908567C2.90713 0.759041 2.81718 0.623179 2.70378 0.508737C2.59039 0.394295 2.45577 0.303515 2.30761 0.241579C2.15945 0.179644 2.00066 0.147766 1.8403 0.147766C1.67993 0.147766 1.52114 0.179644 1.37298 0.241579C1.22482 0.303515 1.0902 0.394295 0.976809 0.508737C0.863414 0.623179 0.773464 0.759041 0.712096 0.908567C0.650727 1.05809 0.619141 1.21835 0.619141 1.3802ZM0.619141 7.63039C0.619141 7.79223 0.650727 7.95249 0.712096 8.10202C0.773464 8.25154 0.863414 8.38741 0.976809 8.50185C1.0902 8.61629 1.22482 8.70707 1.37298 8.769C1.52114 8.83094 1.67993 8.86282 1.8403 8.86282C2.00066 8.86282 2.15945 8.83094 2.30761 8.769C2.45577 8.70707 2.59039 8.61629 2.70378 8.50185C2.81718 8.38741 2.90713 8.25154 2.96849 8.10202C3.02986 7.95249 3.06145 7.79223 3.06145 7.63039C3.06145 7.46854 3.02986 7.30828 2.96849 7.15876C2.90713 7.00923 2.81718 6.87337 2.70378 6.75893C2.59039 6.64448 2.45577 6.5537 2.30761 6.49177C2.15945 6.42983 2.00066 6.39795 1.8403 6.39795C1.67993 6.39795 1.52114 6.42983 1.37298 6.49177C1.22482 6.5537 1.0902 6.64448 0.976809 6.75893C0.863414 6.87337 0.773464 7.00923 0.712096 7.15876C0.650727 7.30828 0.619141 7.46854 0.619141 7.63039ZM0.619141 13.8806C0.619141 14.0424 0.650727 14.2027 0.712096 14.3522C0.773464 14.5017 0.863414 14.6376 0.976809 14.752C1.0902 14.8665 1.22482 14.9573 1.37298 15.0192C1.52114 15.0811 1.67993 15.113 1.8403 15.113C2.00066 15.113 2.15945 15.0811 2.30761 15.0192C2.45577 14.9573 2.59039 14.8665 2.70378 14.752C2.81718 14.6376 2.90713 14.5017 2.96849 14.3522C3.02986 14.2027 3.06145 14.0424 3.06145 13.8806C3.06145 13.7187 3.02986 13.5585 2.96849 13.4089C2.90713 13.2594 2.81718 13.1236 2.70378 13.0091C2.59039 12.8947 2.45577 12.8039 2.30761 12.742C2.15945 12.68 2.00066 12.6481 1.8403 12.6481C1.67993 12.6481 1.52114 12.68 1.37298 12.742C1.22482 12.8039 1.0902 12.8947 0.976809 13.0091C0.863414 13.1236 0.773464 13.2594 0.712096 13.4089C0.650727 13.5585 0.619141 13.7187 0.619141 13.8806Z" fill="#808080"/>
</svg>
