<svg width="12" height="16" viewBox="0 0 12 16" fill="none" xmlns="http://www.w3.org/2000/svg">
<path d="M11 2H2.92188L6.85938 7.51562C7.04688 7.83854 7.05208 8.16146 6.875 8.48438C6.85417 8.51562 6.51562 8.99219 5.85938 9.91406C5.20312 10.8359 4.55208 11.7474 3.90625 12.6484L2.9375 14H11C11.2812 14 11.5182 14.099 11.7109 14.2969C11.9036 14.4948 12 14.7318 12 15.0078C12 15.2839 11.9036 15.5182 11.7109 15.7109C11.5182 15.9036 11.2812 16 11 16H1C0.71875 16 0.481771 15.9036 0.289062 15.7109C0.0963542 15.5182 0 15.2812 0 15C0 14.8125 0.104167 14.5729 0.3125 14.2812L4.78125 8.01562C1.77083 3.79688 0.21875 1.61979 0.125 1.48438C0.0416667 1.32812 0 1.16667 0 1C0 0.71875 0.0989583 0.481771 0.296875 0.289062C0.494792 0.0963542 0.729167 0 1 0H11C11.2812 0 11.5182 0.0963542 11.7109 0.289062C11.9036 0.481771 12 0.716146 12 0.992188C12 1.26823 11.9036 1.50521 11.7109 1.70312C11.5182 1.90104 11.2812 2 11 2Z" fill="#808080"/>
</svg>
